<svg xmlns="http://www.w3.org/2000/svg" viewBox="0 0 1280 300" width="1280" height="300">
    <defs>
        <pattern id="af-grid" width="40" height="40" patternUnits="userSpaceOnUse">
            <path d="M 40 0 L 0 0 0 40" fill="none" stroke="#1E293B" stroke-width="1"/>
        </pattern>
        <marker id="arrow-af" viewBox="0 0 10 10" refX="9" refY="5" markerWidth="6" markerHeight="6" orient="auto">
            <path d="M 0 1 L 9 5 L 0 9 z" fill="#64748B" />
        </marker>
    </defs>
    <rect width="1280" height="300" fill="#0F172A" />
    <rect width="1280" height="300" fill="url(#af-grid)" />
    <text x="80" y="50" fill="#94A3B8" font-size="12" font-family="system-ui, -apple-system, sans-serif" font-weight="700" letter-spacing="1">OPERATIONAL CONTROL FLOW</text>
    <path d="M 240 100 L 360 100" stroke="#64748B" stroke-width="2" marker-end="url(#arrow-af)" />
    <path d="M 540 100 L 960 100" stroke="#64748B" stroke-width="2" marker-end="url(#arrow-af)" />
    <path d="M 540 100 L 600 100 L 600 200 L 960 200" fill="none" stroke="#64748B" stroke-width="2" marker-end="url(#arrow-af)" stroke-linejoin="round" />
    <path d="M 240 200 L 360 200" stroke="#64748B" stroke-width="2" marker-end="url(#arrow-af)" />
    <path d="M 540 200 L 660 200" stroke="#64748B" stroke-width="2" marker-end="url(#arrow-af)" />
    <path d="M 840 200 L 960 200" stroke="#64748B" stroke-width="2" marker-end="url(#arrow-af)" />
    <path d="M 450 170 L 450 130" stroke="#64748B" stroke-width="2" marker-end="url(#arrow-af)" />
    <g transform="translate(80, 70)">
        <rect width="160" height="60" fill="#1E293B" stroke="#334155" stroke-width="1" rx="8" />
        <rect width="6" height="60" fill="#10B981" rx="3" />
        <text x="80" y="35" fill="#F8FAFC" font-size="14" font-family="system-ui, -apple-system, sans-serif" font-weight="600" text-anchor="middle">Snapshot</text>
    </g>
    <g transform="translate(380, 70)">
        <rect width="160" height="60" fill="#1E293B" stroke="#334155" stroke-width="1" rx="8" />
        <rect width="6" height="60" fill="#38BDF8" rx="3" />
        <text x="80" y="35" fill="#F8FAFC" font-size="14" font-family="system-ui, -apple-system, sans-serif" font-weight="600" text-anchor="middle">Status Update</text>
    </g>
    <g transform="translate(980, 70)">
        <rect width="160" height="60" fill="#1E293B" stroke="#334155" stroke-width="1" rx="8" />
        <rect width="6" height="60" fill="#A855F7" rx="3" />
        <text x="80" y="35" fill="#F8FAFC" font-size="14" font-family="system-ui, -apple-system, sans-serif" font-weight="600" text-anchor="middle">Summary Cache</text>
    </g>
    <g transform="translate(80, 170)">
        <rect width="160" height="60" fill="#1E293B" stroke="#334155" stroke-width="1" rx="8" />
        <rect width="6" height="60" fill="#F59E0B" rx="3" />
        <text x="80" y="35" fill="#F8FAFC" font-size="14" font-family="system-ui, -apple-system, sans-serif" font-weight="600" text-anchor="middle">Failed Job</text>
    </g>
    <g transform="translate(380, 170)">
        <rect width="160" height="60" fill="#1E293B" stroke="#334155" stroke-width="1" rx="8" stroke-dasharray="4,4" />
        <rect width="6" height="60" fill="#38BDF8" rx="3" />
        <text x="80" y="35" fill="#F8FAFC" font-size="14" font-family="system-ui, -apple-system, sans-serif" font-weight="600" text-anchor="middle">Retry Check</text>
    </g>
    <g transform="translate(680, 170)">
        <rect width="160" height="60" fill="#1E293B" stroke="#334155" stroke-width="1" rx="8" />
        <rect width="6" height="60" fill="#EF4444" rx="3" />
        <text x="80" y="35" fill="#F8FAFC" font-size="14" font-family="system-ui, -apple-system, sans-serif" font-weight="600" text-anchor="middle">Incident</text>
    </g>
    <g transform="translate(980, 170)">
        <rect width="160" height="60" fill="#1E293B" stroke="#334155" stroke-width="1" rx="8" />
        <rect width="6" height="60" fill="#64748B" rx="3" />
        <text x="80" y="35" fill="#F8FAFC" font-size="14" font-family="system-ui, -apple-system, sans-serif" font-weight="600" text-anchor="middle">Audit</text>
    </g>
</svg>
