<svg xmlns="http://www.w3.org/2000/svg" viewBox="0 0 1280 380" width="1280" height="380">
    <defs>
        <pattern id="hero-grid" width="40" height="40" patternUnits="userSpaceOnUse">
            <path d="M 40 0 L 0 0 0 40" fill="none" stroke="#1E293B" stroke-width="1"/>
        </pattern>
    </defs>
    <rect width="1280" height="380" fill="#0F172A" />
    <rect width="1280" height="380" fill="url(#hero-grid)" />
    <text x="80" y="90" fill="#38BDF8" font-size="13" font-family="system-ui, -apple-system, sans-serif" font-weight="700" letter-spacing="2">SPRING BOOT OPERATIONS BACKEND</text>
    <text x="80" y="145" fill="#F8FAFC" font-size="46" font-family="system-ui, -apple-system, sans-serif" font-weight="800" letter-spacing="-1">ops-monitor</text>
    <text x="80" y="195" fill="#94A3B8" font-size="18" font-family="system-ui, -apple-system, sans-serif" font-weight="400">Service health snapshots, failed-job retries, incident</text>
    <text x="80" y="225" fill="#94A3B8" font-size="18" font-family="system-ui, -apple-system, sans-serif" font-weight="400">lifecycle management, auditability, and operational status visibility.</text>
    <g transform="translate(80, 275)">
        <rect x="0" y="0" width="100" height="32" fill="#1E293B" stroke="#334155" stroke-width="1" rx="6" />
        <text x="50" y="21" fill="#10B981" font-size="13" font-family="system-ui, -apple-system, sans-serif" font-weight="600" text-anchor="middle">Spring Boot</text>
        <rect x="115" y="0" width="105" height="32" fill="#1E293B" stroke="#334155" stroke-width="1" rx="6" />
        <text x="167.5" y="21" fill="#F59E0B" font-size="13" font-family="system-ui, -apple-system, sans-serif" font-weight="600" text-anchor="middle">PostgreSQL</text>

        <rect x="235" y="0" width="70" height="32" fill="#1E293B" stroke="#334155" stroke-width="1" rx="6" />
        <text x="270" y="21" fill="#A855F7" font-size="13" font-family="system-ui, -apple-system, sans-serif" font-weight="600" text-anchor="middle">Redis</text>

        <rect x="320" y="0" width="80" height="32" fill="#1E293B" stroke="#334155" stroke-width="1" rx="6" />
        <text x="360" y="21" fill="#38BDF8" font-size="13" font-family="system-ui, -apple-system, sans-serif" font-weight="600" text-anchor="middle">Retries</text>

        <rect x="415" y="0" width="90" height="32" fill="#1E293B" stroke="#334155" stroke-width="1" rx="6" />
        <text x="460" y="21" fill="#EF4444" font-size="13" font-family="system-ui, -apple-system, sans-serif" font-weight="600" text-anchor="middle">Incidents</text>

        <rect x="520" y="0" width="70" height="32" fill="#1E293B" stroke="#334155" stroke-width="1" rx="6" />
        <text x="555" y="21" fill="#E2E8F0" font-size="13" font-family="system-ui, -apple-system, sans-serif" font-weight="600" text-anchor="middle">Audit</text>
    </g>
    <g transform="translate(740, 50)">
        <rect x="0" y="0" width="480" height="280" fill="#0B1120" stroke="#334155" stroke-width="1" rx="16" />
        <rect x="0" y="0" width="480" height="44" fill="#1E293B" rx="16" />
        <path d="M 0 44 L 480 44" stroke="#334155" stroke-width="1" />
        <circle cx="24" cy="22" r="5" fill="#EF4444" />
        <circle cx="40" cy="22" r="5" fill="#F59E0B" />
        <circle cx="56" cy="22" r="5" fill="#10B981" />
        <text x="240" y="26" fill="#94A3B8" font-size="12" font-family="system-ui, -apple-system, sans-serif" font-weight="600" text-anchor="middle" letter-spacing="1">SYSTEM SNAPSHOT</text>

        <path d="M 120 100 L 290 100" stroke="#475569" stroke-width="1.5" stroke-dasharray="3,3" />
        <path d="M 120 160 L 290 160" stroke="#475569" stroke-width="1.5" stroke-dasharray="3,3" />
        <path d="M 120 220 L 290 220" stroke="#475569" stroke-width="1.5" stroke-dasharray="3,3" />
        <path d="M 120 100 L 120 220" stroke="#475569" stroke-width="1.5" stroke-dasharray="3,3" />
        <path d="M 360 100 L 360 220" stroke="#475569" stroke-width="1.5" stroke-dasharray="3,3" />

        <g transform="translate(50, 80)">
            <rect width="140" height="40" fill="#0F172A" stroke="#334155" stroke-width="1" rx="6" />
            <rect width="4" height="40" fill="#38BDF8" rx="2" />
            <text x="70" y="25" fill="#F8FAFC" font-size="13" font-family="system-ui, -apple-system, sans-serif" font-weight="600" text-anchor="middle">Services</text>
        </g>

        <g transform="translate(50, 140)">
            <rect width="140" height="40" fill="#0F172A" stroke="#334155" stroke-width="1" rx="6" />
            <rect width="4" height="40" fill="#10B981" rx="2" />
            <text x="70" y="25" fill="#F8FAFC" font-size="13" font-family="system-ui, -apple-system, sans-serif" font-weight="600" text-anchor="middle">Snapshots</text>
        </g>

        <g transform="translate(50, 200)">
            <rect width="140" height="40" fill="#0F172A" stroke="#334155" stroke-width="1" rx="6" />
            <rect width="4" height="40" fill="#F97316" rx="2" />
            <text x="70" y="25" fill="#F8FAFC" font-size="13" font-family="system-ui, -apple-system, sans-serif" font-weight="600" text-anchor="middle">Retries</text>
        </g>

        <g transform="translate(290, 80)">
            <rect width="140" height="40" fill="#0F172A" stroke="#334155" stroke-width="1" rx="6" />
            <rect width="4" height="40" fill="#EF4444" rx="2" />
            <text x="70" y="25" fill="#F8FAFC" font-size="13" font-family="system-ui, -apple-system, sans-serif" font-weight="600" text-anchor="middle">Incidents</text>
        </g>

        <g transform="translate(290, 140)">
            <rect width="140" height="40" fill="#0F172A" stroke="#334155" stroke-width="1" rx="6" />
            <rect width="4" height="40" fill="#F59E0B" rx="2" />
            <text x="70" y="25" fill="#F8FAFC" font-size="13" font-family="system-ui, -apple-system, sans-serif" font-weight="600" text-anchor="middle">PostgreSQL</text>
        </g>

        <g transform="translate(290, 200)">
            <rect width="140" height="40" fill="#0F172A" stroke="#334155" stroke-width="1" rx="6" />
            <rect width="4" height="40" fill="#A855F7" rx="2" />
            <text x="70" y="25" fill="#F8FAFC" font-size="13" font-family="system-ui, -apple-system, sans-serif" font-weight="600" text-anchor="middle">Redis</text>
        </g>
    </g>
</svg>
